<!doctype html>
<svg viewBox="4.86 22.429 1107.716 380.742" width="100" height="40">
  <path fill="currentColor" opacity="1.000000" stroke="none" d="M 717.814 352.574 C 734.038 368.623 749.37 383.779 767.555 401.761 C 730.415 401.761 697.56 402.938 664.882 401.045 C 654.958 400.463 643.966 393.068 636.164 385.861 C 615.397 366.703 596.09 345.963 574.093 323.708 C 551.892 346.788 636.678 271.588 641.667 276.563 C 666.747 301.616 691.841 326.656 717.814 352.574 Z" style=""></path>
  <path fill="currentColor" opacity="1.000000" stroke="none" d="M 778.844 220.44 C 767.947 141.509 835.738 107.627 901.758 115.401 C 939.506 119.863 969.17 138.291 990.289 172.605 C 970.941 183.111 952.891 194.13 933.706 202.539 C 928.203 204.946 919.266 200.133 912.114 197.969 C 900.73 194.535 889.684 188.749 878.151 187.626 C 873.054 187.14 867.078 195.657 861.508 200.079 C 865.834 205.041 869.241 211.976 874.703 214.532 C 884.722 219.223 896.133 220.846 906.638 224.632 C 923.769 230.783 941.845 235.596 957.421 244.615 C 1000.023 269.276 1008.217 329.914 976.349 367.541 C 934.923 416.471 799.895 420.027 765.608 336.877 C 784.266 326.372 802.708 314.758 822.339 305.78 C 827.355 303.482 838.496 307.376 842.836 312.094 C 858.452 329.062 877.096 332.118 897.701 326.791 C 902.826 325.466 909.572 319.112 910.073 314.474 C 910.559 309.985 904.975 302.116 900.284 300.278 C 883.884 293.842 866.605 289.691 849.867 284.067 C 817.661 273.251 788.214 259.041 778.844 220.44 Z" style=""></path>
  <path fill="currentColor" opacity="1.000000" stroke="none" d="M 237.788 166.17 C 260.354 125.257 297.237 114.346 338.798 114.59 C 383.159 114.86 418.082 133.545 442.824 172.524 C 423.733 182.935 406.184 193.913 387.377 201.958 C 381.333 204.54 371.923 199.687 364.163 197.753 C 351.643 194.616 339.366 189.911 326.671 188.424 C 322.98 187.978 315.936 195.671 314.8 200.633 C 314.002 204.121 319.721 211.341 324.129 213.315 C 334.81 218.088 346.559 220.427 357.659 224.348 C 374.83 230.445 393.001 234.961 408.671 243.83 C 455.492 270.29 461.806 338.189 421.935 374.139 C 365.271 425.233 254.743 406.385 217.237 337.215 C 236.436 326.385 255.283 314.515 275.361 305.334 C 280.215 303.117 291.18 307.849 295.804 312.73 C 311.109 328.887 329.294 332.078 349.236 326.926 C 354.779 325.48 361.35 318.909 362.702 313.501 C 363.595 309.931 356.875 302.711 351.981 299.886 C 344.991 295.857 336.541 294.315 328.699 291.773 C 314.124 287.041 299.157 283.256 285.028 277.469 C 234.611 256.81 218.224 218.547 237.788 166.17 Z" style=""></path>
  <path fill="currentColor" opacity="1.000000" stroke="none" d="M 4.995 131.679 C 18.813 128.61 32.496 127.069 47.03 125.433 C 47.287 124.162 48.071 121.945 48.125 119.7 C 49.207 74.948 49.558 74.434 92.985 61.414 C 104.762 57.885 116.619 54.6 130.234 50.679 C 130.234 76.611 130.234 101.205 130.234 127.055 C 149.352 127.055 166.915 127.055 185.41 127.055 C 185.41 153.406 185.41 178.487 185.41 205.473 C 167.428 205.473 149.473 205.473 130.18 205.473 C 130.18 239.653 129.085 272.047 131.032 304.239 C 131.464 311.337 141.564 320.896 149.284 323.763 C 159.857 327.697 172.39 326.331 185.221 327.318 C 185.221 350.817 185.221 374.639 185.221 400.112 C 154.841 403.086 124.393 404.776 94.932 393.771 C 69.365 384.239 54.29 364.391 51.803 337.986 C 48.76 305.767 49.153 273.237 48.247 240.829 C 47.936 229.742 48.193 218.628 48.193 206.311 C 33.685 206.311 20.327 206.311 4.86 206.311 C 4.86 181.164 4.86 157.179 4.995 131.679 Z" style=""></path>
  <path fill="currentColor" opacity="1.000000" stroke="none" d="M 1102.034 330.266 C 1116.028 352.006 1115.946 370.975 1102.642 386.578 C 1090.109 401.275 1070.302 406.061 1052.969 398.57 C 1034.703 390.675 1024.157 372.611 1026.902 352.899 C 1029.214 336.296 1038.664 324.52 1054.118 318.652 C 1071.749 311.959 1087.716 315.934 1102.034 330.266 Z" style=""></path>
  <path fill="#4338ca" opacity="1.000000" stroke="none" d="M 658.811 261.637 C 650.969 269.411 551.514 371.07 530.003 392.054 C 524.852 397.07 516.199 398.489 509.154 401.558 C 506.45 394.379 501.434 387.24 501.38 380.048 C 500.637 298.52 500.65 216.979 500.474 135.451 C 500.461 130.841 500.474 126.244 500.474 121.093 C 521.512 121.093 541.536 119.335 561.059 121.715 C 574.241 123.324 578.798 135.803 578.798 148.796 C 578.784 174.106 578.784 199.403 578.784 224.713 C 580.217 225.551 581.65 226.389 583.084 227.227 C 591.142 218.926 599.132 210.543 607.285 202.309 C 660.447 148.593 713.852 95.093 766.717 41.08 C 779.155 28.371 793.203 22.219 810.793 22.435 C 838.442 22.76 866.077 22.516 897.485 22.516 C 871.607 48.827 848.041 73.109 824.124 97.027 C 769.137 152.014 714.041 206.893 658.811 261.637 Z" style=""></path>
</svg>